<svg aria-hidden="true" class="tcom-icon tcom-social-icon tcom-icon-social-facebook" width="40" height="40" viewBox="0 0 40 40" fill="none" xmlns="http://www.w3.org/2000/svg">
                  <rect x="0.499878" y="0.5" width="39" height="39" rx="19.5" fill="#F6F6F6"></rect> <path fill-rule="evenodd" clip-rule="evenodd" d="M27.9999 20C27.9999 15.5821 24.4178 12 19.9999 12C15.5819 12 11.9999 15.5821 11.9999 20C11.9999 23.9927 14.925 27.3025 18.75 27.9033V22.3131H16.7182V20H18.75V18.2371C18.75 16.2323 19.9448 15.1241 21.7718 15.1241C22.647 15.1241 23.5628 15.2805 23.5628 15.2805V17.2493H22.5536C21.5603 17.2493 21.2498 17.8658 21.2498 18.4992V19.9999H23.4683L23.1139 22.313H21.2497V27.9032C25.0747 27.3035 27.9998 23.9937 27.9998 19.9999L27.9999 20Z" fill="black"></path> <path fill-rule="evenodd" clip-rule="evenodd" d="M23.1139 22.313L23.4683 19.9999H21.2498V18.4992C21.2498 17.8669 21.5592 17.2493 22.5537 17.2493H23.5629V15.2805C23.5629 15.2805 22.6471 15.1241 21.7718 15.1241C19.9448 15.1241 18.7501 16.2312 18.7501 18.2371V20H16.7183V22.3131H18.7501V27.9033C19.1573 27.9673 19.5747 28 19.9999 28C20.4252 28 20.8426 27.9662 21.2498 27.9033V22.3131H23.114L23.1139 22.313Z" fill="white"></path> <rect x="0.499878" y="0.5" width="39" height="39" rx="19.5" stroke="black"></rect>
                 </svg>