<svg aria-hidden="true" class="tcom-icon tcom-social-icon tcom-icon-social-youtube" width="40" height="40" viewBox="0 0 40 40" fill="none" xmlns="http://www.w3.org/2000/svg">
                  <rect x="0.499878" y="0.5" width="39" height="39" rx="19.5" fill="#F6F6F6"></rect> <path d="M20.5124 27.979L15.7669 27.8922C14.2305 27.862 12.6902 27.9224 11.1838 27.6091C8.89236 27.1409 8.73003 24.8456 8.56016 22.9203C8.3261 20.2135 8.41671 17.4576 8.85841 14.7735C9.10777 13.2674 10.0891 12.3686 11.6067 12.2709C16.7296 11.9159 21.8866 11.958 26.9982 12.1236C27.538 12.1388 28.0816 12.2217 28.6139 12.3162C31.2415 12.7768 31.3056 15.3778 31.4759 17.5675C31.6458 19.7797 31.5741 22.0033 31.2494 24.2005C30.9889 26.0196 30.4906 27.5452 28.3874 27.6925C25.7522 27.8851 23.1775 28.0401 20.5349 27.9907C20.5351 27.979 20.5199 27.979 20.5124 27.979ZM17.7225 23.3734C19.7083 22.2332 21.6562 21.112 23.6307 19.9795C21.6412 18.8393 19.697 17.7181 17.7225 16.5856V23.3734Z" fill="black"></path> <rect x="0.499878" y="0.5" width="39" height="39" rx="19.5" stroke="black"></rect>
                 </svg>